<svg id="Layer_1" data-name="Layer 1" xmlns="http://www.w3.org/2000/svg" viewBox="0 0 927.61 355.89"><defs><style>.cls-1{fill:#fff;}</style></defs><title>deranger typeface white</title><path class="cls-1" d="M814.85,417.57c9.18,11.19,34,5.55,47.92-2.68,11.44-6.75,17.44-15.76,17-16.28s-9.85,10.23-25,13c-3.82.68-14.73,2.64-18.46-2.94-3-4.51-.74-13,6.3-20.15a56.59,56.59,0,0,0,16.66-.7c5.35-1,15-2.88,23.42-10.76a41.2,41.2,0,0,0,11.43-19.11,9.09,9.09,0,0,1,4.54-4.34c2.52-1,5.94-.79,7.53.61,5.37,4.71-2.09,29.7-18.91,46.36-6.3,6.24-14.49,11.9-13.21,14.39.29.57,1.11,1,6.45.83,9.67-.33,14.51-.49,18.74-3s6-5.73,9.6-11.85a65.53,65.53,0,0,0,6.5-15.22c0-.19.06-.43.12-.44.29,0,.36,5,1.43,8.44,1.81,5.75,7.15,9.17,8.88,10,13.79,6.83,43.61-27.33,42.38-28.77-1-1.12-19.68,18.71-30.87,13.06-3.51-1.77-5.33-5.57-6.34-9.11,22.3-10.58,34.65-26.36,31.76-37.66-1.23-4.78-5.21-8.81-9.53-10.77-9.14-4.13-22,.08-30.89,11.44a13.36,13.36,0,0,0-3.46-4.68c-.35-.3-4.95-4.13-10.81-3.06a14.74,14.74,0,0,0-5.18,2.25,33.22,33.22,0,0,0-8,6.59,18.31,18.31,0,0,0-5.76-5.33c-16.44-9.42-48.85,9.59-64.82,34.5C822.4,374.91,803.76,404.05,814.85,417.57Zm118-67.44c2.23-2.55,5.82-6.66,10.2-6.08a7,7,0,0,1,5.55,4c1.1,2.71-.36,5.5-1.15,7-4.56,8.73-18.75,12.57-22.18,13.44C925.85,363.53,927.53,356.26,932.89,350.13ZM867,360.75c5.19-4,11.06-8.48,16.91-6.8,1.18.34,3,.87,3.76,2.42,2.19,4.79-7.85,16.66-20,19.84a28.9,28.9,0,0,1-14.66-.14A62.73,62.73,0,0,1,867,360.75Z" transform="translate(-53.06 -328.88)"/><path class="cls-1" d="M870.71,469.43a378.12,378.12,0,0,1,110-39.54l-4.89-8.07a395.86,395.86,0,0,0-46.45.74,445.1,445.1,0,0,0-52.2,7.32c-58.81,11.42-76.82,23.81-85.57,14.51-8.38-8.89-.66-29.54,3.23-39.94,6.28-16.77,21.4-40,29-48.14a33,33,0,0,0,5.55-8.43c1.68-3.64,3.55-7.7,2-10.31-1.22-2-3.64-1.75-15.5-2.2-10.84-.41-13.49-.81-16.28,1.35-1.66,1.28-2.47,2.76-4.33,7.33s-4.08,10.46-6.34,17.89a28.38,28.38,0,0,0-7.25-15.73c-8.47-8.88-23.12-11.13-37-5.6a65,65,0,0,0-25.23,17.3c-23.8,26.87-14.64,64.36-13.54,68.57a18.1,18.1,0,0,1-9.09,4.67c-5.14,1-10.63-.7-13.12-2.8-12.69-10.73,23.92-58.71,7.5-79a19.53,19.53,0,0,0-11.11-6.6c-18.8-3.8-40.71,26.34-42.37,28.66a23.68,23.68,0,0,0,.85-10.63c-.26-1.67-1.61-10.54-9.11-15a19,19,0,0,0-10.07-2.38c-11.41-.1-18.9,7.75-20.94,9.9-4.49,4.71-5.2,8.37-5.36,9.3-.24,1.4-1,5.67,1.42,8.08,2.58,2.62,8.26,2.47,13.41-1.13a4.68,4.68,0,0,1,2.73,1c4.48,3.88-1.74,16.64-17.12,53.32-3.68,8.78-4.13,10-5.66,12.56-8.65,14.75-24.74,28.55-32.61,24.67a8.55,8.55,0,0,1-3.79-4.67c-3.61-8.47,2.68-18.83,4.77-22.42,4.49-7.72,23-39.57,17.46-61.3-4.75-18.5-26.16-26.42-27.94-27-16.88-5.93-37.22-1.64-48.57,11.22-6.91,7.83-13.65,22.4-7.8,30.63,4.2,5.9,12.46,6.25,13.17,6.27A17.7,17.7,0,0,0,515,389.33c5.52-5.24,6.87-14.15,4.41-16-1.19-.89-2.8.21-3.76-.81-1.34-1.43.08-5.41,1.88-7.87,4.18-5.67,14.18-8.31,21.78-4.57,5.63,2.78,8,8.07,8.85,10,3.76,8.74,2,19.51-2.15,25.92-11.74,18.26-42.92,3.24-67.38,18.76-9.76,6.19-20.87,19.54-24.28,51.71-5.19,12.32-15.17,19.29-23.39,17.77-5.89-1.1-9.53-6.31-10.86-8.22-7.45-10.67-3.47-23.45-2.82-25.42,10.31-3.16,27.29-10.25,40.58-26.56,2.09-2.57,28.43-35.74,14.95-60.05a31.66,31.66,0,0,0-13.11-12.62c-17.41-8.61-44,1-65.53,24.47.49-3.05,2.29-16-4.15-20.41-8.34-5.76-25,6.55-30.62,10.73a74.59,74.59,0,0,0-15.11,15c-4.37-6.93-10.5-13.57-19.12-16.7-28.67-10.44-67.62,24.19-85.69,55.57-20.8,36.13-25.43,88.05-4.07,105.17,6.61,5.3,14.93,6.73,18.82,7.4,18.84,3.24,34-5.54,41.34-9.89,26.66-15.92,37.13-43.61,35.62-44.71-1.32-1-11.3,18.84-33.43,25.61-2.86.87-20.54,6-27.63-2.24-3.3-3.82-3.56-9.67-3.83-15.82a50.54,50.54,0,0,1,1.34-14,134.82,134.82,0,0,0,16.57-1.35c9.22-1.32,17.47-2.51,25.56-6.28C330.59,454.24,339,432.6,341,427.54a73.13,73.13,0,0,0,4.55-18.76c1.1-1.28,13.31-15.22,20.29-12,5.3,2.43,4.92,13.52,4.67,19.45C369.14,447,350,490.77,335.55,520a52.44,52.44,0,0,0,13.81-.31c3.34-.53,9.95-1.69,15.74-5.7,7-4.85,9.67-11.76,14.06-23.52,4.89-13.08,5.84-22.15,7.62-22s.32,9.4,5.47,18.64A34,34,0,0,0,410,501.88c14.33,4.95,33.65-3.31,45.55-21.51a20.79,20.79,0,0,0,5.23,7.62c10.83,9.82,29.45,3.84,34.26,2.29,20.41-6.55,30.63-24.36,33.68-30.23.29,4.62,1.6,13.47,7.85,17.65,9.47,6.32,28.68.83,42.34-18.3-.53,1.39-1.29,3.3-2.28,5.53-2.56,5.84-3.66,7.17-3.08,8.05,1.09,1.64,6.61-.4,13.07-2.51,4.83-1.57,11.85-3.72,20.63-5.92,1-3.8,2.58-9.42,4.59-16.18,14.56-49.06,23.34-57.77,28.79-62,6.28-4.86,17.51-11,21.8-7.62,7.71,6-17.33,35.85-5.58,60.65,1.26,2.66,4.19,8.64,10.43,11.7,11.44,5.62,28.87-1.08,44-17.13a28,28,0,0,0,13.46,8.38c8.07,2.12,14.77-.33,20.38-2.37a52.13,52.13,0,0,0,19.21-12.5,54.21,54.21,0,0,1-11.81,21.38c-15.58,17-38.08,17.31-68,20.35a740.87,740.87,0,0,0-81.38,12.95h0c-18.92,4.23-37.88,7.38-37.88,7.38S249.65,534.12,162.44,604c-11.93,9.56-25.26,17.29-37.12,26.94-18.54,15.09-29.7,26.26-39.4,22.75A13.69,13.69,0,0,1,77.44,644c-1.21-6.41,4.16-12.45,7.14-15.56C107,605.09,183,552.17,207.18,507c24.83-46.35,11.74-115.31-20.07-131.78-14.78-7.65-31.26-2.76-39.78-.23C84.38,393.64,57.6,484,53.66,541c-1.87,27,1,53.05,3.08,53.12,2.21.07,2-26.65,9.78-59,10.83-45,39.2-109.3,76.32-112.52,2.24-.19,12.82-1.11,19.89,5.42,14.59,13.45,2,47.27.52,51.19-7.68,20.05-21.49,34.18-49.12,62.44-2.36,2.41-9.63,10-18.62,21-2.61,3.18-5.39,6.81-8.72,11.49-14.19,20-21.88,31-24.92,48.06-.95,5.29-6.21,34.33,7.83,50.08,16.89,19,60.77,17.65,102.58-12.29A900.25,900.25,0,0,1,276,597.34c29-14.93,108.75-54.3,224.07-80.27,90-20.28,214.66-46.93,363.51-11.45a646.84,646.84,0,0,1,80.37,24.78l4.34-5.83ZM311.44,445.37c-15.19,15.55-38.28,12-41.26,11.48a104.79,104.79,0,0,1,7.2-19.42c4.74-9.71,10.75-22,23.79-29.3,4.14-2.3,14.17-7.89,19.3-4.12C327.66,409.29,324.29,432.21,311.44,445.37Zm80.4-6c.64-8.83,3.12-22.91,12.8-35.77,4.2-5.57,10.54-14,20.8-15.11,1.67-.18,9.18-1,13,3.39,6,6.88-.72,22.44-7.51,30.87C418.28,438.4,397.29,439.28,391.84,439.34Zm132.52,1.09c-3.73,7.26-7.71,15-16.4,20.21-2.32,1.39-14.26,8.56-21.79,3.62s-7.06-19.12-3.45-27.5c6.17-14.34,25.85-22.45,49.33-20.74A76.71,76.71,0,0,1,524.36,440.43Zm241.28-37.69c-6.44,5.65-21.51,15.16-32.5,8.89C721.5,405,721,384.34,728.08,371.15c6.68-12.42,22.4-22.46,36.31-18.14,1.15.36,9.74,3.18,13.9,11.6C784.9,378,775,394.51,765.64,402.74Z" transform="translate(-53.06 -328.88)"/></svg>