<?xml version="1.0" standalone="no"?>
<!DOCTYPE svg PUBLIC "-//W3C//DTD SVG 20010904//EN"
 "http://www.w3.org/TR/2001/REC-SVG-20010904/DTD/svg10.dtd">
<svg version="1.0" xmlns="http://www.w3.org/2000/svg"
 width="2810.000000pt" height="629.000000pt" viewBox="0 0 2810.000000 629.000000"
 preserveAspectRatio="xMidYMid meet">

<g transform="translate(0.000000,629.000000) scale(0.100000,-0.100000)"
fill="#000000" stroke="none">
<path d="M19575 5454 c-298 -23 -530 -73 -764 -164 -361 -141 -679 -383 -882
-670 l-64 -91 -3 426 -2 425 -506 0 -507 0 6 -1217 c3 -675 11 -1326 17 -1460
6 -134 10 -250 8 -260 -2 -9 -399 648 -883 1460 l-880 1477 -647 0 -648 0 -2
-1314 -3 -1313 -455 1176 c-250 647 -479 1238 -508 1314 l-54 137 -623 0 -623
0 -54 -137 c-30 -76 -272 -695 -538 -1375 -267 -681 -487 -1234 -491 -1230 -3
4 -18 41 -33 83 -82 231 -278 432 -507 521 l-56 22 99 33 c135 45 235 93 335
159 296 197 437 489 420 869 -10 217 -57 373 -161 529 -187 280 -531 444
-1059 503 -138 15 -385 17 -2710 20 l-2557 4 0 -431 0 -431 -74 98 c-90 120
-239 265 -366 356 -114 81 -355 203 -500 252 -220 76 -470 124 -755 145 -82 6
-527 10 -1072 10 l-933 0 0 -2036 0 -2035 1022 4 c1110 4 1112 4 1389 63 410
86 818 307 1065 577 50 54 178 220 211 273 9 15 12 -83 12 -448 l1 -468 1990
0 1990 0 0 796 0 796 402 -4 c352 -4 410 -7 458 -22 175 -57 294 -172 371
-359 43 -104 66 -204 99 -425 37 -260 70 -402 138 -607 l57 -170 646 -3 646
-2 25 67 c13 38 105 296 204 575 l179 508 715 -3 714 -2 200 -573 200 -572
779 0 778 0 -4 1253 c-3 834 -8 1310 -16 1425 -7 95 -11 177 -9 183 2 5 388
-636 858 -1426 l855 -1435 672 0 673 0 2 370 3 370 60 -82 c111 -155 296 -329
456 -431 105 -67 281 -149 413 -192 212 -69 397 -101 654 -111 360 -15 704 41
920 150 109 55 273 169 360 251 l80 76 7 -53 c3 -29 14 -118 23 -198 l17 -145
2313 -3 2312 -2 0 795 0 795 363 0 c404 -1 478 -8 583 -60 127 -62 234 -191
293 -354 40 -113 55 -180 81 -366 38 -278 66 -399 147 -643 l55 -167 549 0
c318 0 549 4 549 9 0 5 -16 33 -36 62 -127 189 -213 452 -264 809 -53 373 -73
461 -135 596 -95 207 -264 368 -478 454 l-57 24 87 28 c110 36 271 112 354
168 90 61 228 202 277 285 98 166 134 309 134 530 -1 170 -20 278 -71 410
-129 334 -469 564 -951 644 -278 46 -217 45 -2907 48 l-2563 4 0 -358 0 -358
-21 35 c-45 74 -151 201 -230 274 -271 251 -633 403 -1102 461 -120 15 -466
26 -562 19z m430 -713 c362 -76 585 -310 675 -708 l12 -53 399 0 399 0 0 -275
0 -275 -845 0 -845 0 0 -365 0 -365 445 0 c370 0 445 -2 445 -14 0 -20 -45
-154 -74 -221 -71 -159 -224 -331 -369 -413 -283 -162 -689 -175 -993 -33
-428 201 -654 664 -654 1343 0 329 52 572 173 813 154 308 435 522 752 574 39
6 81 13 95 15 56 10 300 -5 385 -23z m-17645 -101 c218 -17 369 -54 515 -128
301 -150 484 -404 567 -785 20 -89 22 -132 23 -342 0 -211 -3 -254 -23 -353
-57 -284 -157 -486 -325 -659 -182 -188 -401 -291 -680 -322 -53 -6 -274 -11
-492 -11 l-395 0 0 1305 0 1305 343 0 c188 0 398 -5 467 -10z m4850 -455 l0
-465 -980 0 -980 0 0 465 0 465 980 0 980 0 0 -465z m2025 436 c298 -65 435
-222 435 -496 0 -246 -116 -403 -359 -485 -126 -42 -229 -50 -673 -50 l-418 0
0 531 0 531 458 -5 c421 -4 465 -6 557 -26z m15235 -436 l0 -465 -985 0 -985
0 0 465 0 465 985 0 985 0 0 -465z m1879 454 c205 -19 342 -67 440 -155 106
-95 158 -272 133 -447 -31 -215 -162 -345 -419 -414 l-98 -27 -462 -4 -463 -3
0 530 0 531 378 0 c207 0 428 -5 491 -11z m-14187 -1447 c-250 -1 -456 -1
-458 1 -3 2 304 915 413 1227 l47 134 226 -679 227 -680 -455 -3z m-4952 -677
l0 -475 -980 0 -980 0 0 475 0 475 980 0 980 0 0 -475z m17260 0 l0 -475 -985
0 -985 0 0 475 0 475 985 0 985 0 0 -475z"/>
</g>
</svg>
